<svg width="44" height="65" viewBox="0 0 44 65" fill="none" xmlns="http://www.w3.org/2000/svg">
<path d="M15.6241 2.30733C16.1508 2.14132 16.4432 1.57973 16.2772 1.05299C16.1112 0.526241 15.5496 0.233809 15.0229 0.399819L15.6241 2.30733ZM13.8355 21.6894L14.07 20.7173L13.8355 21.6894ZM35.3458 37.7944L35.7264 38.7192L35.3458 37.7944ZM32.4415 60.2092C32.9225 59.9378 33.0924 59.3279 32.821 58.8469L28.3984 51.0085C28.127 50.5275 27.5171 50.3576 27.0361 50.629C26.5551 50.9003 26.3851 51.5103 26.6565 51.9913L30.5877 58.9588L23.6203 62.89C23.1393 63.1614 22.9693 63.7713 23.2407 64.2523C23.5121 64.7333 24.1221 64.9032 24.6031 64.6318L32.4415 60.2092ZM15.0229 0.399819C12.4152 1.22165 9.50896 2.57511 6.98246 4.23919C4.47695 5.88944 2.23646 7.91617 1.09644 10.129C0.518817 11.2502 0.205077 12.4565 0.324524 13.6972C0.444867 14.9471 0.996459 16.1412 1.99554 17.2397C3.95361 19.3927 7.67487 21.2319 13.601 22.6615L14.07 20.7173C8.24522 19.3121 5.01674 17.5891 3.47514 15.8941C2.72439 15.0686 2.38866 14.2673 2.31532 13.5055C2.24108 12.7345 2.4273 11.9128 2.87437 11.045C3.78377 9.27976 5.6917 7.48419 8.08257 5.90944C10.4524 4.34853 13.1905 3.0743 15.6241 2.30733L15.0229 0.399819ZM13.601 22.6615C20.9323 24.4301 26.7489 25.973 31.1454 27.3761C35.5751 28.7897 38.4533 30.029 39.9953 31.153C40.7684 31.7165 41.0752 32.159 41.1679 32.4573C41.2379 32.6826 41.2274 32.9537 40.9192 33.3691C40.585 33.8197 39.9535 34.354 38.9318 34.9623C37.9238 35.5623 36.6038 36.1953 34.9652 36.8697L35.7264 38.7192C37.4123 38.0253 38.8306 37.3501 39.9549 36.6808C41.0654 36.0196 41.9599 35.3232 42.5256 34.5606C43.1174 33.7628 43.3805 32.8382 43.0778 31.8639C42.7979 30.9627 42.0857 30.2018 41.1734 29.5368C39.3447 28.2038 36.1865 26.8855 31.7535 25.4708C27.2873 24.0454 21.4149 22.4891 14.07 20.7173L13.601 22.6615ZM34.9652 36.8697C30.2858 38.7956 26.3386 40.7542 23.393 42.7171C20.49 44.6515 18.3837 46.7036 17.6687 48.882C17.2982 50.0108 17.3067 51.16 17.753 52.2811C18.1912 53.3816 19.0229 54.386 20.1825 55.3075C22.4842 57.1368 26.2764 58.7957 31.6817 60.3016L32.2184 58.375C26.8859 56.8894 23.4084 55.3166 21.4269 53.7418C20.4448 52.9613 19.8816 52.2205 19.6112 51.5413C19.349 50.8826 19.3354 50.2174 19.569 49.5057C20.0621 48.003 21.6688 46.2694 24.502 44.3814C27.2926 42.5219 31.1049 40.6213 35.7264 38.7192L34.9652 36.8697Z" fill="black"/>
</svg>
